<svg data-v-3e478792="" width="16" height="16" viewBox="0 0 16 16" fill="none" xmlns="http://www.w3.org/2000/svg"><path data-v-3e478792="" d="M12.8 2L9.59999 5.20002H12V10.8C12 11.684 11.284 12.4 10.4 12.4C9.51599 12.4 8.79997 11.684 8.79997 10.8V5.20002C8.79997 3.43602 7.36398 2.00004 5.59998 2.00004C3.83598 2.00004 2.4 3.43602 2.4 5.20002V10.8H0L3.19999 14L6.40001 10.8H4.00001V5.20002C4.00001 4.31604 4.716 3.60001 5.60002 3.60001C6.48405 3.60001 7.19999 4.316 7.19999 5.20002V10.8C7.19999 12.564 8.63598 14 10.4 14C12.164 14 13.6 12.564 13.6 10.8V5.20002H16L12.8 2Z" fill="#6A748E"></path></svg>